<svg xmlns="http://www.w3.org/2000/svg"><symbol fill="none" id="door" viewBox="0 0 110 100"><title>door</title><g clip-path="url(#a)"><path d="M99 88.889V0H11v88.889H0V100h110V88.889H99Zm-55 0V11.11h22v77.78H44Z" fill="#179D2E"/></g><defs><clipPath id="a"><path fill="#fff" d="M0 0h110v100H0z"/></clipPath></defs></symbol><symbol fill="none" id="Electrical" viewBox="0 0 111 100"><title>Electrical</title><path d="M97.125 60.754c0-2.88-2.543-5.237-5.65-5.237H80.171v10.475h11.302c3.108 0 5.651-2.357 5.651-5.238Zm-5.65 15.712H80.171v10.475h11.302c3.108 0 5.651-2.356 5.651-5.237 0-2.88-2.543-5.237-5.65-5.237ZM46.266 60.754H34.965v20.95h11.302c0 5.761 5.086 10.475 11.302 10.475H74.52v-41.9H57.57c-6.216 0-11.302 4.714-11.302 10.475Z" fill="#F02E2C"/><path d="M12.888 53.803c0-6.098 4.551-11.087 10.114-11.087h7.585c9.759 0 17.698-8.703 17.698-19.403 0-10.699-7.939-19.402-17.698-19.402H12.888c-2.78 0-5.056 2.494-5.056 5.543 0 3.05 2.275 5.544 5.056 5.544h17.699c4.197 0 7.585 3.714 7.585 8.315 0 4.602-3.388 8.316-7.585 8.316h-7.585c-11.176 0-20.227 9.923-20.227 22.174 0 12.252 9.051 22.175 20.227 22.175h10.113V64.89H23.002c-5.563 0-10.114-4.989-10.114-11.087Z" fill="#F02E2C"/></symbol><symbol fill="none" id="Frame11" viewBox="0 0 123 100"><title>Frame11</title><g clip-path="url(#a)"><path d="M64.441 12.5c0-6.938 4.963-12.5 11.154-12.5h19.52c6.134 0 11.154 5.625 11.154 12.5V26c-6.47 2.563-11.154 9.438-11.154 17.563V56.25H64.44V12.5Zm-36.25 31v12.75h30.673V12.5C58.864 5.562 53.9 0 47.71 0H28.19c-6.135 0-11.154 5.625-11.154 12.5v13.438c6.47 2.562 11.154 9.5 11.154 17.562Zm81.759-12.063c-5.466 1-9.258 6.813-9.258 13.063v18H22.613V43.75c0-3.315-1.175-6.495-3.267-8.839-2.092-2.344-4.929-3.661-7.887-3.661-2.958 0-5.795 1.317-7.887 3.661C1.48 37.255.305 40.435.305 43.75V75c0 6.875 5.02 12.5 11.154 12.5V100h11.154V87.5h78.079V100h11.154V87.5C117.981 87.5 123 81.875 123 75V43.75c0-7.563-6.079-13.625-13.05-12.313Z" fill="#F5AF23"/></g><defs><clipPath id="a"><path fill="#fff" d="M0 0h123v100H0z"/></clipPath></defs></symbol><symbol fill="none" id="home" viewBox="0 0 116 100"><title>home</title><g clip-path="url(#a)"><path d="M57.87-.5-.26 52.441h17.439V99.5H98.56V52.441H116L57.87-.5Zm0 32.353c13.602 0 25.926 5.47 34.878 14.353l-6.976 6.941c-7.44-7.4-17.47-11.523-27.902-11.47-10.929 0-20.81 4.352-27.903 11.47l-6.975-6.941c9.312-9.233 21.84-14.389 34.878-14.353Zm0 19.588c8.138 0 15.52 3.294 20.927 8.647l-6.976 6.883a19.643 19.643 0 0 0-13.951-5.706c-5.464 0-10.405 2.176-13.951 5.706l-6.976-6.883c5.584-5.55 13.1-8.655 20.927-8.647Zm0 19.647c5.464 0 9.882 4.353 9.882 9.765 0 5.412-4.418 9.824-9.882 9.824-5.464 0-9.882-4.412-9.882-9.824s4.418-9.765 9.882-9.765Z" fill="#F02E2C"/></g><defs><clipPath id="a"><path fill="#fff" d="M0 0h116v100H0z"/></clipPath></defs></symbol><symbol fill="none" id="instalation" viewBox="0 0 98 100"><title>instalation</title><g clip-path="url(#a)"><path d="M19.678 59.5h9.79l14.686 15h-9.79l-14.686-15Zm-9.79-50h4.895v-5c0-1.326.516-2.598 1.434-3.536A4.844 4.844 0 0 1 19.678-.5h19.58c1.299 0 2.544.527 3.462 1.464A5.055 5.055 0 0 1 44.154 4.5v5h9.79v-5c0-1.326.516-2.598 1.434-3.536A4.844 4.844 0 0 1 58.839-.5h19.58c1.299 0 2.544.527 3.462 1.464A5.055 5.055 0 0 1 83.315 4.5v5h4.895a9.687 9.687 0 0 1 6.922 2.929A10.11 10.11 0 0 1 98 19.5v65a10.11 10.11 0 0 1-2.868 7.071A9.687 9.687 0 0 1 88.21 94.5v5H73.525v-5H24.573v5H9.888v-5a9.687 9.687 0 0 1-6.923-2.929A10.11 10.11 0 0 1 .098 84.5v-65a10.11 10.11 0 0 1 2.867-7.071A9.687 9.687 0 0 1 9.888 9.5Zm68.532 15c1.298 0 2.543.527 3.46 1.465a5.054 5.054 0 0 1 1.435 3.535 5.054 5.054 0 0 1-1.434 3.535A4.844 4.844 0 0 1 78.42 34.5a4.844 4.844 0 0 1-3.462-1.465 5.055 5.055 0 0 1-1.433-3.535c0-1.326.515-2.598 1.433-3.535A4.844 4.844 0 0 1 78.42 24.5Zm-19.58 0c1.297 0 2.542.527 3.46 1.465a5.055 5.055 0 0 1 1.434 3.535 5.055 5.055 0 0 1-1.434 3.535 4.844 4.844 0 0 1-3.46 1.465 4.844 4.844 0 0 1-3.462-1.465 5.055 5.055 0 0 1-1.434-3.535c0-1.326.516-2.598 1.434-3.535a4.844 4.844 0 0 1 3.461-1.465Zm29.37-5H9.888v20H88.21v-20Zm-78.322 65H88.21v-35H9.888v35Zm9.79-60c1.299 0 2.544.527 3.462 1.465a5.055 5.055 0 0 1 1.433 3.535 5.055 5.055 0 0 1-1.433 3.535 4.844 4.844 0 0 1-3.462 1.465 4.844 4.844 0 0 1-3.461-1.465 5.054 5.054 0 0 1-1.434-3.535c0-1.326.516-2.598 1.434-3.535a4.844 4.844 0 0 1 3.461-1.465Zm34.266 35h9.79l14.686 15h-9.79l-14.686-15Z" fill="#F5AF23"/></g><defs><clipPath id="a"><path fill="#fff" d="M0 0h98v100H0z"/></clipPath></defs></symbol><symbol fill="none" id="paint" viewBox="0 0 91 100"><title>paint</title><g clip-path="url(#a)" fill="#0177B8"><path d="M80.845 0H24.992c-5.6 0-10.155 4.694-10.155 10.465v15.698c0 5.771 4.555 10.465 10.155 10.465h55.853c5.6 0 10.155-4.694 10.155-10.465V10.465C91 4.694 86.445 0 80.845 0Z"/><path d="M54.663 65.527v-9.85c0-5.432-4.433-9.85-9.884-9.85H10.186V16.28c-5.45 0-9.884 4.418-9.884 9.85v19.699c0 5.432 4.433 9.85 9.884 9.85h34.593v9.849a4.95 4.95 0 0 0-3.494 1.442 4.916 4.916 0 0 0-1.448 3.482v24.624c0 1.306.52 2.559 1.448 3.483A4.95 4.95 0 0 0 44.779 100h9.884a4.95 4.95 0 0 0 3.494-1.442 4.916 4.916 0 0 0 1.448-3.483V70.451a4.916 4.916 0 0 0-1.448-3.482 4.95 4.95 0 0 0-3.494-1.442Z"/></g><defs><clipPath id="a"><path fill="#fff" d="M0 0h91v100H0z"/></clipPath></defs></symbol><symbol fill="none" id="picture" viewBox="0 0 117 100"><title>picture</title><g clip-path="url(#a)"><path d="M0 0v100h117V0H0Zm8.976 9.346h99.048v81.308H8.976V9.346Zm20.417 11.738c-2.794 0-5.144.974-7.048 2.925-1.905 1.95-2.857 4.357-2.857 7.218 0 2.73.952 5.07 2.857 7.02 1.904 1.951 4.255 2.926 7.048 2.926 2.666 0 4.95-.975 6.855-2.925 1.905-1.95 2.857-4.29 2.857-7.02 0-2.862-.952-5.268-2.857-7.219-1.904-1.95-4.189-2.925-6.855-2.925Zm42.09 4.944L49.008 60.94 37.077 50.797 19.488 74.2v6.83h78.024V53.591l-26.03-27.564Z" fill="#0177B8"/></g><defs><clipPath id="a"><path fill="#fff" d="M0 0h117v100H0z"/></clipPath></defs></symbol><symbol fill="none" id="Tap(1)" viewBox="0 0 94 100"><title>Tap(1)</title><g clip-path="url(#a)"><g clip-path="url(#b)"><path d="M103.4-10H-9.4v120h112.8V-10Z" fill="#fff"/><path d="M103.4-10H-9.4v120h112.8V-10Z" fill="#fff"/><path d="M80.502 48.464h-19.28c-.871 0-1.733-.094-2.59-.271a12.884 12.884 0 0 1-2.487-.802 13.323 13.323 0 0 1-4.298-3.058 13.972 13.972 0 0 1-1.65-2.14 14.36 14.36 0 0 1-1.224-2.438 14.778 14.778 0 0 1-.754-2.646 14.764 14.764 0 0 1-.255-2.75V13.844a14.847 14.847 0 0 1 1.009-5.396c.333-.854.74-1.667 1.224-2.438a13.93 13.93 0 0 1 1.65-2.135 13.437 13.437 0 0 1 2.007-1.755A12.958 12.958 0 0 1 56.145.818a12.536 12.536 0 0 1 5.077-1.073h19.28c.872 0 1.733.088 2.585.27.857.178 1.684.449 2.487.803.808.354 1.572.786 2.291 1.302a13.478 13.478 0 0 1 2.013 1.755 14.392 14.392 0 0 1 2.874 4.573c.333.86.582 1.74.754 2.646.166.911.254 1.828.254 2.75v20.515c0 .927-.088 1.844-.255 2.75a14.778 14.778 0 0 1-.753 2.646 14.39 14.39 0 0 1-1.23 2.438c-.48.77-1.032 1.484-1.644 2.14a13.438 13.438 0 0 1-2.013 1.75 12.67 12.67 0 0 1-4.778 2.11c-.852.177-1.713.27-2.585.27ZM61.222 7.437a5.658 5.658 0 0 0-2.306.484 5.82 5.82 0 0 0-1.042.595 6.21 6.21 0 0 0-1.665 1.77 6.875 6.875 0 0 0-.9 2.307 7.197 7.197 0 0 0-.113 1.25V34.36c0 .422.039.839.112 1.25.079.412.196.813.348 1.203.147.391.333.76.553 1.11a6.211 6.211 0 0 0 1.665 1.766 5.814 5.814 0 0 0 3.348 1.083h19.28a5.56 5.56 0 0 0 1.175-.125 5.865 5.865 0 0 0 3.085-1.755c.284-.297.533-.62.749-.97.22-.348.406-.718.558-1.108a6.852 6.852 0 0 0 .46-2.454V13.844a6.755 6.755 0 0 0-.46-2.453 6.586 6.586 0 0 0-.558-1.105 5.658 5.658 0 0 0-.75-.974 6.17 6.17 0 0 0-.91-.796 5.815 5.815 0 0 0-2.174-.959 5.923 5.923 0 0 0-1.175-.12h-19.28ZM27.475 48.464H13.013c-.866 0-1.728-.094-2.585-.271a12.884 12.884 0 0 1-2.487-.802 13.326 13.326 0 0 1-4.298-3.058 13.973 13.973 0 0 1-1.65-2.14 14.362 14.362 0 0 1-1.224-2.438 14.387 14.387 0 0 1-.754-2.646 14.768 14.768 0 0 1-.255-2.75V18.974c0-.927.083-1.844.255-2.75.166-.912.42-1.792.754-2.646.333-.854.739-1.667 1.224-2.437A13.975 13.975 0 0 1 3.643 9 13.405 13.405 0 0 1 7.94 5.943c.808-.354 1.635-.62 2.487-.802a12.758 12.758 0 0 1 2.585-.271h14.462c.872 0 1.734.094 2.59.27.852.183 1.68.449 2.482.803.808.36 1.572.791 2.297 1.307a13.653 13.653 0 0 1 3.657 3.89c.48.771.89 1.584 1.224 2.438a14.835 14.835 0 0 1 1.008 5.396v15.385c0 .927-.083 1.844-.254 2.75a14.786 14.786 0 0 1-.754 2.646 14.73 14.73 0 0 1-1.224 2.438 13.649 13.649 0 0 1-3.657 3.89c-.725.516-1.489.948-2.297 1.308a12.7 12.7 0 0 1-2.482.802c-.856.177-1.718.27-2.59.27ZM13.013 12.563c-.392 0-.783.041-1.175.124a5.866 5.866 0 0 0-1.13.365 6.03 6.03 0 0 0-1.039.594 5.93 5.93 0 0 0-.915.797 6.4 6.4 0 0 0-1.307 2.078 6.85 6.85 0 0 0-.343 1.203 7.103 7.103 0 0 0-.113 1.25v15.385a6.689 6.689 0 0 0 .456 2.453 6.446 6.446 0 0 0 1.307 2.079c.279.297.582.562.915.797a5.804 5.804 0 0 0 3.344 1.083h14.462c.397 0 .789-.042 1.175-.125a5.81 5.81 0 0 0 2.174-.958c.328-.235.632-.5.916-.797a6.345 6.345 0 0 0 1.302-2.078c.152-.391.27-.792.343-1.204.078-.411.117-.828.117-1.25V18.974c0-.422-.039-.839-.117-1.25a6.447 6.447 0 0 0-.343-1.203 6.429 6.429 0 0 0-.553-1.11 6.396 6.396 0 0 0-.75-.968 6.467 6.467 0 0 0-.915-.797 5.81 5.81 0 0 0-3.349-1.084H13.013ZM75.68 99.745H61.222c-.871 0-1.733-.094-2.59-.271a12.89 12.89 0 0 1-2.487-.802 13.402 13.402 0 0 1-4.299-3.057 13.977 13.977 0 0 1-1.649-2.141 13.992 13.992 0 0 1-1.224-2.438 14.777 14.777 0 0 1-.754-2.645 14.763 14.763 0 0 1-.255-2.75V70.255a14.9 14.9 0 0 1 1.008-5.396 14.36 14.36 0 0 1 1.225-2.437 13.676 13.676 0 0 1 1.65-2.136 13.438 13.438 0 0 1 2.007-1.755 12.955 12.955 0 0 1 2.291-1.302 12.535 12.535 0 0 1 5.077-1.073H75.68a12.535 12.535 0 0 1 5.077 1.073 13 13 0 0 1 2.291 1.302c.725.516 1.39 1.1 2.007 1.755a13.676 13.676 0 0 1 1.65 2.136c.485.77.891 1.583 1.224 2.437a14.9 14.9 0 0 1 1.009 5.396v15.386c0 .927-.084 1.843-.255 2.75a14.777 14.777 0 0 1-.754 2.645c-.333.86-.74 1.672-1.224 2.438a13.977 13.977 0 0 1-1.65 2.14 13.407 13.407 0 0 1-4.298 3.058 12.89 12.89 0 0 1-2.487.802c-.857.177-1.719.27-2.59.27ZM61.222 63.844c-.396 0-.788.041-1.175.125a5.82 5.82 0 0 0-2.174.958 6.211 6.211 0 0 0-1.664 1.766 6.875 6.875 0 0 0-.9 2.313 7.106 7.106 0 0 0-.113 1.25V85.64c0 .421.039.838.112 1.25.079.411.196.812.348 1.203.147.39.333.76.553 1.11.22.348.47.671.75.968a5.6 5.6 0 0 0 .915.797 5.826 5.826 0 0 0 2.173.958 5.59 5.59 0 0 0 1.175.125H75.68a5.714 5.714 0 0 0 2.306-.49 5.772 5.772 0 0 0 1.042-.593 5.65 5.65 0 0 0 .916-.797 6.398 6.398 0 0 0 1.307-2.078c.147-.39.265-.792.343-1.203.073-.412.113-.829.113-1.25V70.255c0-.422-.04-.838-.113-1.25a7.31 7.31 0 0 0-.343-1.203 6.397 6.397 0 0 0-1.307-2.078 6.207 6.207 0 0 0-.916-.797 5.816 5.816 0 0 0-3.348-1.083H61.222ZM27.475 99.745H13.013a12.75 12.75 0 0 1-2.585-.271 12.89 12.89 0 0 1-2.487-.802 13.407 13.407 0 0 1-4.299-3.057 13.978 13.978 0 0 1-1.65-2.141A13.993 13.993 0 0 1 .77 91.036a14.386 14.386 0 0 1-.754-2.645 14.767 14.767 0 0 1-.255-2.75V70.255c0-.927.083-1.843.255-2.75.166-.906.42-1.791.754-2.646.333-.854.739-1.666 1.224-2.437a13.677 13.677 0 0 1 1.65-2.136 13.443 13.443 0 0 1 2.007-1.755A12.958 12.958 0 0 1 7.94 57.23a12.535 12.535 0 0 1 5.072-1.073h14.462c.872 0 1.734.089 2.59.271.852.177 1.68.448 2.482.802.808.354 1.572.787 2.297 1.302.72.516 1.39 1.1 2.007 1.755a13.682 13.682 0 0 1 1.65 2.136c.48.77.89 1.583 1.224 2.437a14.908 14.908 0 0 1 1.008 5.396v15.386c0 .927-.083 1.843-.254 2.75a14.785 14.785 0 0 1-.754 2.645c-.333.86-.744 1.672-1.224 2.438a13.655 13.655 0 0 1-3.657 3.89 12.861 12.861 0 0 1-4.779 2.11c-.856.177-1.718.27-2.59.27ZM13.013 63.844c-.392 0-.783.041-1.175.125a5.873 5.873 0 0 0-1.13.364 5.95 5.95 0 0 0-1.039.594 5.93 5.93 0 0 0-.915.797 6.394 6.394 0 0 0-1.307 2.078 6.85 6.85 0 0 0-.343 1.203 7.102 7.102 0 0 0-.113 1.25v15.386c0 .421.04.838.113 1.25.078.411.19.812.343 1.203a6.442 6.442 0 0 0 1.307 2.078c.279.302.582.568.915.797.328.234.676.432 1.038.594.367.161.744.28 1.131.364.392.083.784.125 1.175.125h14.462c.397 0 .789-.042 1.175-.125a5.822 5.822 0 0 0 2.174-.958c.328-.23.632-.495.916-.797.279-.297.529-.62.749-.969.22-.349.401-.719.553-1.11.152-.39.27-.79.343-1.202.078-.412.117-.829.117-1.25V70.255a6.7 6.7 0 0 0-.117-1.25 6.447 6.447 0 0 0-.343-1.203 6.824 6.824 0 0 0-.553-1.11 6.391 6.391 0 0 0-.75-.968 6.467 6.467 0 0 0-.915-.797 5.816 5.816 0 0 0-3.349-1.083H13.013Z" fill="#179D2E"/></g></g><defs><clipPath id="a"><path fill="#fff" d="M0 0h94v100H0z"/></clipPath><clipPath id="b"><path fill="#fff" d="M0 0h94v100H0z"/></clipPath></defs></symbol><symbol fill="none" id="Tap" viewBox="0 0 94 100"><title>Tap</title><g clip-path="url(#a)"><path d="M43.561 0c-.84 0-1.68.84-3.362 2.521v6.723H30c-3.252-3.362-3.252-3.362-6.614 0-3.363 3.361-3.363 3.361 0 6.722 3.363 3.362 3.363 3.362 6.467 0h10.346v6.723h6.725v-6.723h10.235c3.322 3.362 3.32 3.362 6.684 0 3.362-3.361 3.362-3.361 0-6.722-3.363-3.362-3.362-3.362-6.831 0H46.924V2.52C45.243.841 44.402 0 43.56 0ZM-.152 16.387v53.781h6.725V16.387H-.152Zm13.45 10.084-3.362-3.362v40.336l3.362-3.361V26.471Zm30.263-.42c-6.725 0-10.16 0-10.346 6.722H16.661v20.168h13.581c3.232 3.361 6.594 6.723 13.32 6.723 6.724 0 10.087-3.361 13.45-6.723 13.45 0 13.45 0 13.45 6.723v6.723h20.175V52.94c0-13.445-6.725-20.168-20.175-20.168H53.649c.074-6.723-3.363-6.723-10.088-6.723ZM67.1 69.747v3.361H94v-3.361H67.1Zm13.45 6.723s-8.158 10.852-6.725 17.227c.887 3.94 2.684 6.302 6.726 6.302 4.041 0 5.838-2.361 6.725-6.302 1.434-6.374-6.725-17.227-6.725-17.227Z" fill="#179D2E"/></g><defs><clipPath id="a"><path fill="#fff" d="M0 0h94v100H0z"/></clipPath></defs></symbol></svg>